<svg width="1200" height="720" viewBox="0 0 1200 720" fill="none" xmlns="http://www.w3.org/2000/svg">
  <rect width="1200" height="720" rx="28" fill="url(#bg)"/>
  <circle cx="86" cy="84" r="18" fill="#4D44E8"/>
  <text x="118" y="98" fill="#4D44E8" font-family="Arial, sans-serif" font-size="40" font-weight="700">Countries Explorer</text>
  <rect x="84" y="140" width="1034" height="82" rx="18" fill="#FFFFFF" fill-opacity="0.92"/>
  <rect x="124" y="164" width="312" height="36" rx="12" fill="#F3F6FF"/>
  <rect x="522" y="160" width="112" height="44" rx="12" fill="#FFFFFF" stroke="#111827" stroke-width="2"/>
  <rect x="740" y="160" width="160" height="44" rx="12" fill="#FFFFFF"/>
  <rect x="992" y="154" width="110" height="50" rx="12" fill="#4D44E8"/>
  <rect x="998" y="28" width="112" height="44" rx="12" fill="#5B45F5"/>
  <g>
    <rect x="84" y="270" width="250" height="260" rx="18" fill="#FFFFFF"/>
    <rect x="84" y="270" width="250" height="132" rx="18" fill="#FFD600"/>
    <rect x="84" y="270" width="120" height="70" fill="#24408F"/>
    <text x="104" y="460" fill="#4338CA" font-family="Arial, sans-serif" font-size="28" font-weight="700">Niue</text>
  </g>
  <g>
    <rect x="354" y="270" width="250" height="260" rx="18" fill="#FFFFFF"/>
    <rect x="354" y="270" width="250" height="132" rx="18" fill="#76ACD8"/>
    <circle cx="480" cy="335" r="10" fill="#FFFFFF"/>
    <circle cx="436" cy="364" r="10" fill="#FFFFFF"/>
    <circle cx="523" cy="364" r="10" fill="#FFFFFF"/>
    <circle cx="480" cy="392" r="10" fill="#FFFFFF"/>
    <text x="376" y="460" fill="#4338CA" font-family="Arial, sans-serif" font-size="28" font-weight="700">Micronesia</text>
  </g>
  <g>
    <rect x="624" y="270" width="250" height="260" rx="18" fill="#FFFFFF"/>
    <rect x="624" y="270" width="250" height="132" rx="18" fill="#D60E2A"/>
    <path d="M624 270H751L874 402H624V270Z" fill="#111111"/>
    <circle cx="758" cy="318" r="11" fill="#FFFFFF"/>
    <circle cx="689" cy="352" r="10" fill="#FFFFFF"/>
    <circle cx="734" cy="388" r="10" fill="#FFFFFF"/>
    <text x="646" y="460" fill="#4338CA" font-family="Arial, sans-serif" font-size="24" font-weight="700">Papua New Guinea</text>
  </g>
  <g>
    <rect x="894" y="270" width="250" height="260" rx="18" fill="#FFFFFF"/>
    <rect x="894" y="270" width="250" height="132" rx="18" fill="#1D9AEF"/>
    <circle cx="1018" cy="336" r="46" fill="#FFF200"/>
    <text x="916" y="460" fill="#4338CA" font-family="Arial, sans-serif" font-size="28" font-weight="700">Palau</text>
  </g>
  <defs>
    <linearGradient id="bg" x1="0" y1="0" x2="1200" y2="720" gradientUnits="userSpaceOnUse">
      <stop stop-color="#EEF2FF"/>
      <stop offset="1" stop-color="#FBFCFF"/>
    </linearGradient>
  </defs>
</svg>
